<svg width="150" height="150" viewBox="0 0 150 150" fill="none" xmlns="http://www.w3.org/2000/svg">
<path fill-rule="evenodd" clip-rule="evenodd" d="M104.805 30C98.6133 30 93.3771 34.2615 91.8642 39.9829L90.1983 39.2089C89.9011 39.0707 89.5774 38.9991 89.2497 38.9991C88.922 38.9991 88.5983 39.0707 88.3011 39.2089L60.7494 52.0078L33.1977 39.2098C32.8549 39.0505 32.4775 38.9803 32.1003 39.0054C31.7231 39.0306 31.3584 39.1503 31.0398 39.3536C30.7211 39.557 30.4588 39.8373 30.2771 40.1687C30.0954 40.5002 30.0001 40.8721 30 41.2501V104.509C29.9999 104.938 30.1224 105.358 30.3532 105.719C30.5839 106.081 30.9132 106.369 31.3023 106.55L59.8017 119.788C60.0989 119.926 60.4226 119.998 60.7503 119.998C61.078 119.998 61.4017 119.926 61.6989 119.788L89.2506 106.99L116.802 119.788C118.294 120.48 120 119.392 120 117.749V54.4901C120 54.0611 119.878 53.641 119.647 53.2793C119.416 52.9177 119.087 52.6295 118.698 52.4488L115.791 51.097L116.701 49.5472C116.908 49.1719 117.072 48.7723 117.214 48.3637C117.864 46.7749 118.199 45.0747 118.2 43.3579C118.2 36.0165 112.168 30 104.805 30ZM104.805 36.2577C108.77 36.2577 111.922 39.4042 111.922 43.3579C111.922 47.3107 108.77 50.4544 104.805 50.4544C100.841 50.4544 97.6881 47.3107 97.6881 43.3579C97.6881 39.4042 100.841 36.2577 104.805 36.2577ZM90.2559 44.1976L91.4952 44.7745C91.736 47.0236 92.5494 49.1735 93.8577 51.0187L103.171 67.1198C104.476 68.8244 105.343 68.5004 106.428 67.0298L113.499 54.9941L115.5 55.9247V114.223L90.5898 102.651L90.3864 66.9425C90.7536 67.0217 91.1199 67.0982 91.488 67.1855L92.316 63.6836C91.6681 63.5304 91.0176 63.3885 90.3648 63.2579L90.2559 44.1976ZM87.5577 44.5162L87.6612 62.8187C86.7317 62.6915 85.7968 62.6071 84.8595 62.5658L84.7263 66.1622C85.7055 66.1982 86.6928 66.3044 87.6828 66.4484L87.8898 102.659L62.0814 114.65L61.7493 56.5061L87.5577 44.5162ZM34.5 44.7763L59.0475 56.1794L59.3814 114.632L34.5 103.072V44.7763ZM80.8887 62.8115C79.6494 63.0338 78.3813 63.4307 77.2005 64.1174C75.788 64.9352 74.6263 66.1242 73.8417 67.5554L76.9935 69.2942C77.463 68.4392 78.1553 67.7273 78.9969 67.2341L79.0023 67.2305L79.0077 67.2269C79.734 66.8039 80.5989 66.5195 81.525 66.3539L80.8887 62.8115ZM95.8881 64.6394L94.8684 68.09C97.1211 68.756 99.3522 69.521 101.571 70.349L102.83 66.9758C100.551 66.1262 98.2398 65.3342 95.8881 64.6394ZM72.4863 71.4759L72.4593 71.6181L72.4566 71.6307C72.0075 74.1786 72.0552 76.686 72.156 79.0692L75.7524 78.9162C75.6543 76.6041 75.6336 74.3667 76.0017 72.267L76.0233 72.1545L72.4863 71.4759ZM75.9666 82.4649L72.3756 82.7079C72.5376 85.11 72.7104 87.4645 72.7041 89.773L76.3041 89.782C76.3113 87.289 76.1286 84.8517 75.9666 82.4649ZM72.525 93.166C72.426 94.0237 72.2784 94.858 72.0624 95.659L72.0606 95.6635L72.0588 95.6707C71.7438 96.8722 71.2137 97.9846 70.4739 98.8558L73.2162 101.187C74.3754 99.8233 75.1107 98.2186 75.5382 96.595L75.54 96.5896C75.81 95.5852 75.9855 94.5736 76.1007 93.5746L72.525 93.166ZM42.1338 96.6742L40.5174 99.8908C42.7494 101.013 45.0579 101.941 47.3826 102.744L48.5571 99.3409C46.3476 98.5786 44.1903 97.7074 42.1338 96.6742ZM51.8862 100.376L50.9286 103.846C53.31 104.504 55.758 105.027 58.26 105.309L58.6614 101.731C56.3925 101.477 54.1299 100.996 51.8862 100.376ZM68.2131 100.63C66.4203 101.548 64.2558 101.887 62.0301 101.914L62.0751 105.514C64.6257 105.483 67.3527 105.114 69.8529 103.834L68.2131 100.63Z" fill="#F4F6F8"/>
<circle cx="75" cy="75" r="73.5" stroke="#F4F6F8" stroke-width="3"/>
</svg>
