<svg width="90" height="90" viewBox="0 0 90 90" fill="none" xmlns="http://www.w3.org/2000/svg">
<path d="M55.3846 67.8545V8.32598C52.9246 9.52596 50.5108 11.4182 47.7692 13.689L47.0262 14.3074C43.5831 17.1689 39.5308 20.5474 34.6154 22.1627V81.6958C37.08 80.4912 39.4892 78.5989 42.2308 76.3328L42.9738 75.7097C46.4169 72.8482 50.4692 69.4744 55.3846 67.8545ZM74.2708 3.48912C75.6877 4.0568 76.9754 4.57372 78.2031 4.99371L78.3738 5.05371C80.5108 5.79216 82.3892 6.43831 83.8754 7.1583C85.4954 7.93829 86.9585 8.9352 88.0754 10.5367C89.1831 12.1244 89.6169 13.8505 89.8154 15.6459C90 17.3212 90 19.3566 90 21.6966V60.9453C90 64.296 90 67.1022 89.7508 69.3129C89.4969 71.5975 88.9246 73.8405 87.3231 75.659C86.3622 76.74 85.1905 77.6132 83.88 78.2251C81.4108 79.3651 78.8908 79.3928 76.6154 79.0005C74.3862 78.6174 72.1846 77.7866 70.2462 76.9836C69.6 76.7159 68.9815 76.4559 68.3908 76.2036C67.0985 75.6544 65.9169 75.1513 64.7031 74.7267C62.9769 74.1128 61.6246 73.8313 60.54 73.8682C59.8626 73.8866 59.1893 73.9794 58.5323 74.1452C54.5308 75.1282 51.1523 77.9251 46.9754 81.3912L46.6431 81.6635C42.6092 85.005 37.7215 88.9927 31.4215 89.865C29.4462 90.1419 26.9215 89.9665 24.3738 89.5788C21.5543 89.1317 18.7703 88.4839 16.0431 87.6404C13.2666 86.8076 10.5747 85.7151 8.00308 84.3773C5.67231 83.1358 3.35077 81.5297 1.92462 79.4851C0.816923 77.8928 0.383077 76.1667 0.184615 74.3713C-1.71936e-07 72.6959 0 70.6652 0 68.3206V29.0719C0 25.7211 -4.64228e-07 22.915 0.24923 20.7043C0.503076 18.4197 1.07538 16.1766 2.67692 14.3582C3.63692 13.2736 4.80462 12.3967 6.12 11.7921C8.58923 10.6521 11.1092 10.6244 13.3846 11.0167C15.6138 11.4044 17.8154 12.2305 19.7538 13.0336C20.4 13.3013 21.0185 13.5613 21.6092 13.8136C22.9015 14.3674 24.0831 14.8659 25.2969 15.2905C27.0277 15.9043 28.3754 16.1905 29.46 16.149C30.1369 16.1243 30.8062 16.032 31.4677 15.872C35.4692 14.889 38.8477 12.0921 43.0246 8.62597L43.3569 8.35367C47.3908 5.01679 52.2785 1.02915 58.5785 0.152236C62.3538 -0.369296 66.0877 0.530692 69.3138 1.61529C70.9477 2.16913 72.5538 2.80605 74.0308 3.39681L74.2708 3.48912Z" fill="#F4F6F8"/>
</svg>
