<svg width="90" height="90" viewBox="0 0 90 90" fill="none" xmlns="http://www.w3.org/2000/svg">
<path d="M30 90C24.5 90 19.7917 88.0417 15.875 84.125C11.9583 80.2083 10 75.5 10 70V29.125C7.08333 28.0417 4.68833 26.23 2.815 23.69C0.941666 21.15 0.00333333 18.2533 0 15C0 10.8333 1.45833 7.29167 4.375 4.375C7.29167 1.45833 10.8333 0 15 0C19.1667 0 22.7083 1.45833 25.625 4.375C28.5417 7.29167 30 10.8333 30 15C30 18.25 29.0633 21.1467 27.19 23.69C25.3167 26.2333 22.92 28.045 20 29.125V70C20 72.75 20.98 75.105 22.94 77.065C24.9 79.025 27.2533 80.0033 30 80C32.7467 79.9967 35.1017 79.0183 37.065 77.065C39.0283 75.1117 40.0067 72.7567 40 70V20C40 14.5 41.9583 9.79167 45.875 5.875C49.7917 1.95833 54.5 0 60 0C65.5 0 70.2083 1.95833 74.125 5.875C78.0417 9.79167 80 14.5 80 20V60.875C82.9167 61.9583 85.3133 63.7717 87.19 66.315C89.0667 68.8583 90.0033 71.7533 90 75C90 79.1667 88.5417 82.7083 85.625 85.625C82.7083 88.5417 79.1667 90 75 90C70.8333 90 67.2917 88.5417 64.375 85.625C61.4583 82.7083 60 79.1667 60 75C60 71.75 60.9383 68.8333 62.815 66.25C64.6917 63.6667 67.0867 61.875 70 60.875V20C70 17.25 69.0217 14.8967 67.065 12.94C65.1083 10.9833 62.7533 10.0033 60 10C57.2467 9.99667 54.8933 10.9767 52.94 12.94C50.9867 14.9033 50.0067 17.2567 50 20V70C50 75.5 48.0417 80.2083 44.125 84.125C40.2083 88.0417 35.5 90 30 90ZM15 20C16.4167 20 17.605 19.52 18.565 18.56C19.525 17.6 20.0033 16.4133 20 15C19.9967 13.5867 19.5167 12.4 18.56 11.44C17.6033 10.48 16.4167 10 15 10C13.5833 10 12.3967 10.48 11.44 11.44C10.4833 12.4 10.0033 13.5867 10 15C9.99667 16.4133 10.4767 17.6017 11.44 18.565C12.4033 19.5283 13.59 20.0067 15 20ZM75 80C76.4167 80 77.605 79.52 78.565 78.56C79.525 77.6 80.0033 76.4133 80 75C79.9967 73.5867 79.5167 72.4 78.56 71.44C77.6033 70.48 76.4167 70 75 70C73.5833 70 72.3967 70.48 71.44 71.44C70.4833 72.4 70.0033 73.5867 70 75C69.9967 76.4133 70.4767 77.6017 71.44 78.565C72.4033 79.5283 73.59 80.0067 75 80Z" fill="#F4F6F8"/>
</svg>
