<svg width="100" height="90" viewBox="0 0 100 90" fill="none" xmlns="http://www.w3.org/2000/svg">
<path fill-rule="evenodd" clip-rule="evenodd" d="M68.8186 0C71.6038 0.000100207 74.3339 0.821298 76.7032 2.3716C79.0725 3.9219 80.9874 6.14008 82.2333 8.77765L89.1631 23.4476C90.3831 22.9182 91.5831 22.3465 92.7631 21.7323C93.9499 21.1047 95.3236 21.002 96.5819 21.4468C97.8402 21.8916 98.8802 22.8475 99.4729 24.1041C100.066 25.3608 100.163 26.8153 99.7426 28.1477C99.3225 29.4801 98.4198 30.5812 97.233 31.2088C96.0311 31.7752 94.8227 32.3258 93.608 32.8606L98.4129 43.0412C99.4559 45.2486 99.9985 47.683 99.9979 50.1512V63.5294C99.9979 65.7639 99.5525 67.9733 98.6909 70.0132C97.8294 72.053 96.571 73.8774 94.998 75.3671V82.0588C94.998 84.165 94.2079 86.1848 92.8014 87.6741C91.3949 89.1633 89.4873 90 87.4982 90C85.5091 90 83.6015 89.1633 82.195 87.6741C80.7885 86.1848 79.9983 84.165 79.9983 82.0588V79.4118H19.9996V82.0588C19.9996 84.165 19.2094 86.1848 17.8029 87.6741C16.3964 89.1633 14.4888 90 12.4997 90C10.5107 90 8.60304 89.1633 7.19655 87.6741C5.79006 86.1848 4.9999 84.165 4.9999 82.0588V75.3671C1.92996 72.4553 0 68.2306 0 63.5294V50.1459C0.000934375 47.6813 0.543569 45.2507 1.58497 43.0465L6.34987 32.9453C5.14323 32.4088 3.95158 31.8318 2.77494 31.2141C1.59412 30.5783 0.696533 29.4767 0.275657 28.1467C-0.145219 26.8167 -0.0556738 25.3649 0.524989 24.1041C0.818277 23.4817 1.22454 22.9265 1.72055 22.4704C2.21656 22.0143 2.79259 21.6662 3.41574 21.4459C4.03888 21.2257 4.69691 21.1376 5.35221 21.1867C6.00751 21.2359 6.64725 21.4213 7.23485 21.7323C8.41816 22.35 9.61813 22.9218 10.8348 23.4476L17.7646 8.78294C19.0098 6.14438 20.9244 3.92512 23.2938 2.37385C25.6631 0.82258 28.3936 0.000591798 31.1793 0H68.8186ZM27.4994 47.6471C25.5103 47.6471 23.6027 48.4837 22.1962 49.973C20.7897 51.4622 19.9996 53.4821 19.9996 55.5882C19.9996 57.6944 20.7897 59.7142 22.1962 61.2035C23.6027 62.6928 25.5103 63.5294 27.4994 63.5294C29.4885 63.5294 31.3961 62.6928 32.8026 61.2035C34.2091 59.7142 34.9993 57.6944 34.9993 55.5882C34.9993 53.4821 34.2091 51.4622 32.8026 49.973C31.3961 48.4837 29.4885 47.6471 27.4994 47.6471ZM72.4985 47.6471C70.5094 47.6471 68.6018 48.4837 67.1953 49.973C65.7888 51.4622 64.9986 53.4821 64.9986 55.5882C64.9986 57.6944 65.7888 59.7142 67.1953 61.2035C68.6018 62.6928 70.5094 63.5294 72.4985 63.5294C74.4876 63.5294 76.3952 62.6928 77.8017 61.2035C79.2082 59.7142 79.9983 57.6944 79.9983 55.5882C79.9983 53.4821 79.2082 51.4622 77.8017 49.973C76.3952 48.4837 74.4876 47.6471 72.4985 47.6471ZM68.8186 10.5882H31.1793C30.3564 10.5881 29.5462 10.8031 28.8205 11.214C28.0948 11.625 27.4762 12.2193 27.0194 12.9441L26.7094 13.5159L20.3596 26.9523C28.0994 29.4088 38.5292 31.7647 49.999 31.7647C60.7087 31.7647 70.5035 29.7106 78.0484 27.4394L79.6333 26.9523L73.2885 13.5159C72.9205 12.7367 72.3766 12.0656 71.705 11.5623C71.0334 11.059 70.2549 10.739 69.4385 10.6306L68.8236 10.5882H68.8186Z" fill="#F4F6F8"/>
</svg>
