<svg width="90" height="90" viewBox="0 0 90 90" fill="none" xmlns="http://www.w3.org/2000/svg">
<path d="M83 90L51.5 58.5C49 60.5 46.125 62.0833 42.875 63.25C39.625 64.4167 36.1667 65 32.5 65C23.4167 65 15.73 61.8533 9.44 55.56C3.15 49.2667 0.00333598 41.58 2.6455e-06 32.5C-0.00333069 23.42 3.14334 15.7333 9.44 9.44C15.7367 3.14667 23.4233 0 32.5 0C41.5767 0 49.265 3.14667 55.565 9.44C61.865 15.7333 65.01 23.42 65 32.5C65 36.1667 64.4167 39.625 63.25 42.875C62.0833 46.125 60.5 49 58.5 51.5L90 83L83 90ZM32.5 55C38.75 55 44.0633 52.8133 48.44 48.44C52.8167 44.0667 55.0033 38.7533 55 32.5C54.9967 26.2467 52.81 20.935 48.44 16.565C44.07 12.195 38.7567 10.0067 32.5 10C26.2433 9.99333 20.9317 12.1817 16.565 16.565C12.1983 20.9483 10.01 26.26 10 32.5C9.99 38.74 12.1783 44.0533 16.565 48.44C20.9517 52.8267 26.2633 55.0133 32.5 55Z" fill="#F4F6F8"/>
</svg>
