<svg width="90" height="90" viewBox="0 0 90 90" fill="none" xmlns="http://www.w3.org/2000/svg">
<path d="M45 0C50.9674 0 56.6903 2.37053 60.9099 6.5901C65.1295 10.8097 67.5 16.5326 67.5 22.5C67.5 28.4674 65.1295 34.1903 60.9099 38.4099C56.6903 42.6295 50.9674 45 45 45C39.0326 45 33.3097 42.6295 29.0901 38.4099C24.8705 34.1903 22.5 28.4674 22.5 22.5C22.5 16.5326 24.8705 10.8097 29.0901 6.5901C33.3097 2.37053 39.0326 0 45 0ZM45 90C45 90 90 90 90 78.75C90 65.25 68.0625 50.625 45 50.625C21.9375 50.625 0 65.25 0 78.75C0 90 45 90 45 90Z" fill="#F4F6F8"/>
</svg>
